<mxfile host="app.diagrams.net" modified="2024-06-06T12:09:32.679Z" agent="Mozilla/5.0 (Windows NT 10.0; Win64; x64) AppleWebKit/537.36 (KHTML, like Gecko) Chrome/125.0.0.0 Safari/537.36" etag="wBUZ_a5Wfx1eQZsCwT3L" version="24.4.15" type="github">
  <diagram name="Page-1" id="c7488fd3-1785-93aa-aadb-54a6760d102a">
    <mxGraphModel dx="2035" dy="1175" grid="1" gridSize="10" guides="1" tooltips="1" connect="1" arrows="1" fold="1" page="1" pageScale="1" pageWidth="1100" pageHeight="850" background="none" math="0" shadow="0">
      <root>
        <mxCell id="0" />
        <mxCell id="1" parent="0" />
        <mxCell id="2b4e8129b02d487f-1" value="Pool" style="swimlane;html=1;childLayout=stackLayout;horizontal=1;startSize=20;horizontalStack=0;rounded=0;shadow=0;labelBackgroundColor=none;strokeWidth=1;fontFamily=Verdana;fontSize=8;align=center;" parent="1" vertex="1">
          <mxGeometry x="180" y="70" width="680" height="1070" as="geometry" />
        </mxCell>
        <mxCell id="2b4e8129b02d487f-2" value="Greenary platform" style="swimlane;html=1;startSize=20;horizontal=0;fillColor=#CCFF99;" parent="2b4e8129b02d487f-1" vertex="1">
          <mxGeometry y="20" width="680" height="150" as="geometry" />
        </mxCell>
        <mxCell id="2b4e8129b02d487f-18" style="edgeStyle=orthogonalEdgeStyle;rounded=0;html=1;labelBackgroundColor=none;startArrow=none;startFill=0;startSize=5;endArrow=classicThin;endFill=1;endSize=5;jettySize=auto;orthogonalLoop=1;strokeWidth=1;fontFamily=Verdana;fontSize=8" parent="2b4e8129b02d487f-2" source="2b4e8129b02d487f-5" target="2b4e8129b02d487f-6" edge="1">
          <mxGeometry relative="1" as="geometry" />
        </mxCell>
        <mxCell id="2b4e8129b02d487f-5" value="Start" style="ellipse;whiteSpace=wrap;html=1;rounded=0;shadow=0;labelBackgroundColor=none;strokeWidth=1;fontFamily=Verdana;fontSize=8;align=center;fillColor=#99FF99;" parent="2b4e8129b02d487f-2" vertex="1">
          <mxGeometry x="60" y="60" width="30" height="30" as="geometry" />
        </mxCell>
        <mxCell id="2b4e8129b02d487f-6" value="Capture satellite img" style="rounded=1;whiteSpace=wrap;html=1;shadow=0;labelBackgroundColor=none;strokeWidth=1;fontFamily=Verdana;fontSize=8;align=center;" parent="2b4e8129b02d487f-2" vertex="1">
          <mxGeometry x="120" y="56.49999999999997" width="70" height="37" as="geometry" />
        </mxCell>
        <mxCell id="2b4e8129b02d487f-22" style="edgeStyle=orthogonalEdgeStyle;rounded=0;html=1;entryX=0;entryY=0.5;labelBackgroundColor=none;startArrow=none;startFill=0;startSize=5;endArrow=classicThin;endFill=1;endSize=5;jettySize=auto;orthogonalLoop=1;strokeWidth=1;fontFamily=Verdana;fontSize=8" parent="2b4e8129b02d487f-2" source="2b4e8129b02d487f-9" target="2b4e8129b02d487f-10" edge="1">
          <mxGeometry relative="1" as="geometry" />
        </mxCell>
        <mxCell id="2b4e8129b02d487f-9" value="" style="rounded=1;whiteSpace=wrap;html=1;shadow=0;labelBackgroundColor=none;strokeWidth=1;fontFamily=Verdana;fontSize=8;align=center;" parent="2b4e8129b02d487f-2" vertex="1">
          <mxGeometry x="420" y="56.49999999999997" width="70" height="37" as="geometry" />
        </mxCell>
        <mxCell id="2b4e8129b02d487f-23" style="edgeStyle=orthogonalEdgeStyle;rounded=0;html=1;labelBackgroundColor=none;startArrow=none;startFill=0;startSize=5;endArrow=classicThin;endFill=1;endSize=5;jettySize=auto;orthogonalLoop=1;strokeWidth=1;fontFamily=Verdana;fontSize=8" parent="2b4e8129b02d487f-2" source="2b4e8129b02d487f-10" target="2b4e8129b02d487f-11" edge="1">
          <mxGeometry relative="1" as="geometry" />
        </mxCell>
        <mxCell id="2b4e8129b02d487f-10" value="" style="shape=mxgraph.bpmn.shape;html=1;verticalLabelPosition=bottom;labelBackgroundColor=#ffffff;verticalAlign=top;perimeter=rhombusPerimeter;background=gateway;outline=none;symbol=parallelGw;rounded=1;shadow=0;strokeWidth=1;fontFamily=Verdana;fontSize=8;align=center;" parent="2b4e8129b02d487f-2" vertex="1">
          <mxGeometry x="550" y="60" width="30" height="30" as="geometry" />
        </mxCell>
        <mxCell id="2b4e8129b02d487f-11" value="End" style="ellipse;whiteSpace=wrap;html=1;rounded=0;shadow=0;labelBackgroundColor=none;strokeWidth=2;fontFamily=Verdana;fontSize=8;align=center;fillColor=#FF9999;" parent="2b4e8129b02d487f-2" vertex="1">
          <mxGeometry x="610" y="60" width="30" height="30" as="geometry" />
        </mxCell>
        <mxCell id="2b4e8129b02d487f-3" value="Satellite + AI" style="swimlane;html=1;startSize=20;horizontal=0;fillColor=#99FFFF;" parent="2b4e8129b02d487f-1" vertex="1">
          <mxGeometry y="170" width="680" height="150" as="geometry" />
        </mxCell>
        <mxCell id="2b4e8129b02d487f-26" style="edgeStyle=orthogonalEdgeStyle;rounded=0;html=1;labelBackgroundColor=none;startArrow=none;startFill=0;startSize=5;endArrow=classicThin;endFill=1;endSize=5;jettySize=auto;orthogonalLoop=1;strokeWidth=1;fontFamily=Verdana;fontSize=8;entryX=0;entryY=0.5;entryDx=0;entryDy=0;entryPerimeter=0;" parent="2b4e8129b02d487f-3" source="2b4e8129b02d487f-12" target="JXk1v7vSRiy6vUIL9abN-6" edge="1">
          <mxGeometry relative="1" as="geometry">
            <mxPoint x="270" y="68.5" as="targetPoint" />
          </mxGeometry>
        </mxCell>
        <mxCell id="JXk1v7vSRiy6vUIL9abN-4" value="tree&lt;div&gt;coordinates&lt;/div&gt;&lt;div&gt;dataset&lt;/div&gt;" style="edgeLabel;html=1;align=center;verticalAlign=middle;resizable=0;points=[];" parent="2b4e8129b02d487f-26" vertex="1" connectable="0">
          <mxGeometry x="-0.006" y="2" relative="1" as="geometry">
            <mxPoint as="offset" />
          </mxGeometry>
        </mxCell>
        <mxCell id="2b4e8129b02d487f-12" value="Detect trees" style="rounded=1;whiteSpace=wrap;html=1;shadow=0;labelBackgroundColor=none;strokeWidth=1;fontFamily=Verdana;fontSize=8;align=center;" parent="2b4e8129b02d487f-3" vertex="1">
          <mxGeometry x="120" y="49.99999999999996" width="70" height="37" as="geometry" />
        </mxCell>
        <mxCell id="JXk1v7vSRiy6vUIL9abN-6" value="Tree&lt;div&gt;coordinates&lt;div&gt;(x,y)&lt;/div&gt;&lt;/div&gt;" style="shape=cylinder3;whiteSpace=wrap;html=1;boundedLbl=1;backgroundOutline=1;size=15;" parent="2b4e8129b02d487f-3" vertex="1">
          <mxGeometry x="270" y="23.5" width="80" height="90" as="geometry" />
        </mxCell>
        <mxCell id="2b4e8129b02d487f-4" value="Blockchain" style="swimlane;html=1;startSize=20;horizontal=0;fillColor=#FFFF99;" parent="2b4e8129b02d487f-1" vertex="1">
          <mxGeometry y="320" width="680" height="150" as="geometry" />
        </mxCell>
        <mxCell id="2b4e8129b02d487f-14" value="Smart contract&lt;div&gt;(store tree coordinates)&lt;/div&gt;" style="rounded=1;whiteSpace=wrap;html=1;shadow=0;labelBackgroundColor=none;strokeWidth=1;fontFamily=Verdana;fontSize=8;align=center;" parent="2b4e8129b02d487f-4" vertex="1">
          <mxGeometry x="275" y="56.50000000000003" width="70" height="37" as="geometry" />
        </mxCell>
        <mxCell id="2b4e8129b02d487f-30" style="edgeStyle=orthogonalEdgeStyle;rounded=0;html=1;labelBackgroundColor=none;startArrow=none;startFill=0;startSize=5;endArrow=classicThin;endFill=1;endSize=5;jettySize=auto;orthogonalLoop=1;strokeColor=#000000;strokeWidth=1;fontFamily=Verdana;fontSize=8;fontColor=#000000;" parent="2b4e8129b02d487f-4" target="2b4e8129b02d487f-17" edge="1">
          <mxGeometry relative="1" as="geometry">
            <mxPoint x="470" y="75.5" as="sourcePoint" />
          </mxGeometry>
        </mxCell>
        <mxCell id="2b4e8129b02d487f-17" value="" style="rounded=1;whiteSpace=wrap;html=1;shadow=0;labelBackgroundColor=none;strokeWidth=1;fontFamily=Verdana;fontSize=8;align=center;" parent="2b4e8129b02d487f-4" vertex="1">
          <mxGeometry x="530" y="57" width="70" height="37" as="geometry" />
        </mxCell>
        <mxCell id="2b4e8129b02d487f-24" style="edgeStyle=orthogonalEdgeStyle;rounded=0;html=1;labelBackgroundColor=none;startArrow=none;startFill=0;startSize=5;endArrow=classicThin;endFill=1;endSize=5;jettySize=auto;orthogonalLoop=1;strokeWidth=1;fontFamily=Verdana;fontSize=8" parent="2b4e8129b02d487f-1" source="2b4e8129b02d487f-6" target="2b4e8129b02d487f-12" edge="1">
          <mxGeometry relative="1" as="geometry" />
        </mxCell>
        <mxCell id="JXk1v7vSRiy6vUIL9abN-1" value="send request" style="edgeLabel;html=1;align=center;verticalAlign=middle;resizable=0;points=[];" parent="2b4e8129b02d487f-24" vertex="1" connectable="0">
          <mxGeometry x="-0.5621" relative="1" as="geometry">
            <mxPoint as="offset" />
          </mxGeometry>
        </mxCell>
        <mxCell id="2b4e8129b02d487f-31" style="edgeStyle=orthogonalEdgeStyle;rounded=0;html=1;entryX=0.5;entryY=1;labelBackgroundColor=none;startArrow=none;startFill=0;startSize=5;endArrow=classicThin;endFill=1;endSize=5;jettySize=auto;orthogonalLoop=1;strokeWidth=1;fontFamily=Verdana;fontSize=8" parent="2b4e8129b02d487f-1" source="2b4e8129b02d487f-17" target="2b4e8129b02d487f-10" edge="1">
          <mxGeometry relative="1" as="geometry" />
        </mxCell>
        <mxCell id="2b4e8129b02d487f-33" style="edgeStyle=orthogonalEdgeStyle;rounded=0;html=1;labelBackgroundColor=none;startArrow=none;startFill=0;startSize=5;endArrow=classicThin;endFill=1;endSize=5;jettySize=auto;orthogonalLoop=1;strokeWidth=1;fontFamily=Verdana;fontSize=8" parent="2b4e8129b02d487f-1" target="2b4e8129b02d487f-9" edge="1">
          <mxGeometry relative="1" as="geometry">
            <mxPoint x="455" y="380.5" as="sourcePoint" />
          </mxGeometry>
        </mxCell>
        <mxCell id="kqLRz0ytJqrIoJfL_r-M-1" value="Arduino sensors" style="swimlane;html=1;startSize=20;horizontal=0;fillColor=#E5CCFF;" parent="2b4e8129b02d487f-1" vertex="1">
          <mxGeometry y="470" width="680" height="150" as="geometry" />
        </mxCell>
        <mxCell id="kqLRz0ytJqrIoJfL_r-M-2" style="edgeStyle=orthogonalEdgeStyle;rounded=0;html=1;labelBackgroundColor=none;startArrow=none;startFill=0;startSize=5;endArrow=classicThin;endFill=1;endSize=5;jettySize=auto;orthogonalLoop=1;strokeWidth=1;fontFamily=Verdana;fontSize=8;" parent="kqLRz0ytJqrIoJfL_r-M-1" source="kqLRz0ytJqrIoJfL_r-M-3" target="kqLRz0ytJqrIoJfL_r-M-5" edge="1">
          <mxGeometry relative="1" as="geometry" />
        </mxCell>
        <mxCell id="kqLRz0ytJqrIoJfL_r-M-3" value="" style="rounded=1;whiteSpace=wrap;html=1;shadow=0;labelBackgroundColor=none;strokeWidth=1;fontFamily=Verdana;fontSize=8;align=center;" parent="kqLRz0ytJqrIoJfL_r-M-1" vertex="1">
          <mxGeometry x="230" y="57.00000000000003" width="70" height="37" as="geometry" />
        </mxCell>
        <mxCell id="kqLRz0ytJqrIoJfL_r-M-4" value="Yes" style="edgeStyle=orthogonalEdgeStyle;rounded=0;html=1;entryX=0;entryY=0.5;labelBackgroundColor=none;startArrow=none;startFill=0;startSize=5;endArrow=classicThin;endFill=1;endSize=5;jettySize=auto;orthogonalLoop=1;strokeWidth=1;fontFamily=Verdana;fontSize=8" parent="kqLRz0ytJqrIoJfL_r-M-1" source="kqLRz0ytJqrIoJfL_r-M-5" target="kqLRz0ytJqrIoJfL_r-M-7" edge="1">
          <mxGeometry x="-0.5006" y="6" relative="1" as="geometry">
            <mxPoint as="offset" />
          </mxGeometry>
        </mxCell>
        <mxCell id="kqLRz0ytJqrIoJfL_r-M-5" value="" style="strokeWidth=1;html=1;shape=mxgraph.flowchart.decision;whiteSpace=wrap;rounded=1;shadow=0;labelBackgroundColor=none;fontFamily=Verdana;fontSize=8;align=center;" parent="kqLRz0ytJqrIoJfL_r-M-1" vertex="1">
          <mxGeometry x="330" y="60.500000000000064" width="30" height="30" as="geometry" />
        </mxCell>
        <mxCell id="kqLRz0ytJqrIoJfL_r-M-6" style="edgeStyle=orthogonalEdgeStyle;rounded=0;html=1;labelBackgroundColor=none;startArrow=none;startFill=0;startSize=5;endArrow=classicThin;endFill=1;endSize=5;jettySize=auto;orthogonalLoop=1;strokeColor=#000000;strokeWidth=1;fontFamily=Verdana;fontSize=8;fontColor=#000000;" parent="kqLRz0ytJqrIoJfL_r-M-1" source="kqLRz0ytJqrIoJfL_r-M-7" target="kqLRz0ytJqrIoJfL_r-M-8" edge="1">
          <mxGeometry relative="1" as="geometry" />
        </mxCell>
        <mxCell id="kqLRz0ytJqrIoJfL_r-M-7" value="" style="shape=mxgraph.bpmn.shape;html=1;verticalLabelPosition=bottom;labelBackgroundColor=#ffffff;verticalAlign=top;perimeter=rhombusPerimeter;background=gateway;outline=none;symbol=parallelGw;rounded=1;shadow=0;strokeWidth=1;fontFamily=Verdana;fontSize=8;align=center;" parent="kqLRz0ytJqrIoJfL_r-M-1" vertex="1">
          <mxGeometry x="440" y="60.500000000000064" width="30" height="30" as="geometry" />
        </mxCell>
        <mxCell id="kqLRz0ytJqrIoJfL_r-M-8" value="" style="rounded=1;whiteSpace=wrap;html=1;shadow=0;labelBackgroundColor=none;strokeWidth=1;fontFamily=Verdana;fontSize=8;align=center;" parent="kqLRz0ytJqrIoJfL_r-M-1" vertex="1">
          <mxGeometry x="530" y="57" width="70" height="37" as="geometry" />
        </mxCell>
        <mxCell id="kqLRz0ytJqrIoJfL_r-M-9" value="User" style="swimlane;html=1;startSize=20;horizontal=0;fillColor=#FFCCCC;" parent="2b4e8129b02d487f-1" vertex="1">
          <mxGeometry y="620" width="680" height="150" as="geometry" />
        </mxCell>
        <mxCell id="kqLRz0ytJqrIoJfL_r-M-10" style="edgeStyle=orthogonalEdgeStyle;rounded=0;html=1;labelBackgroundColor=none;startArrow=none;startFill=0;startSize=5;endArrow=classicThin;endFill=1;endSize=5;jettySize=auto;orthogonalLoop=1;strokeWidth=1;fontFamily=Verdana;fontSize=8;" parent="kqLRz0ytJqrIoJfL_r-M-9" source="kqLRz0ytJqrIoJfL_r-M-11" target="kqLRz0ytJqrIoJfL_r-M-13" edge="1">
          <mxGeometry relative="1" as="geometry" />
        </mxCell>
        <mxCell id="kqLRz0ytJqrIoJfL_r-M-11" value="" style="rounded=1;whiteSpace=wrap;html=1;shadow=0;labelBackgroundColor=none;strokeWidth=1;fontFamily=Verdana;fontSize=8;align=center;" parent="kqLRz0ytJqrIoJfL_r-M-9" vertex="1">
          <mxGeometry x="230" y="57.00000000000003" width="70" height="37" as="geometry" />
        </mxCell>
        <mxCell id="kqLRz0ytJqrIoJfL_r-M-12" value="Yes" style="edgeStyle=orthogonalEdgeStyle;rounded=0;html=1;entryX=0;entryY=0.5;labelBackgroundColor=none;startArrow=none;startFill=0;startSize=5;endArrow=classicThin;endFill=1;endSize=5;jettySize=auto;orthogonalLoop=1;strokeWidth=1;fontFamily=Verdana;fontSize=8" parent="kqLRz0ytJqrIoJfL_r-M-9" source="kqLRz0ytJqrIoJfL_r-M-13" target="kqLRz0ytJqrIoJfL_r-M-15" edge="1">
          <mxGeometry x="-0.5006" y="6" relative="1" as="geometry">
            <mxPoint as="offset" />
          </mxGeometry>
        </mxCell>
        <mxCell id="kqLRz0ytJqrIoJfL_r-M-13" value="" style="strokeWidth=1;html=1;shape=mxgraph.flowchart.decision;whiteSpace=wrap;rounded=1;shadow=0;labelBackgroundColor=none;fontFamily=Verdana;fontSize=8;align=center;" parent="kqLRz0ytJqrIoJfL_r-M-9" vertex="1">
          <mxGeometry x="330" y="60.500000000000064" width="30" height="30" as="geometry" />
        </mxCell>
        <mxCell id="kqLRz0ytJqrIoJfL_r-M-14" style="edgeStyle=orthogonalEdgeStyle;rounded=0;html=1;labelBackgroundColor=none;startArrow=none;startFill=0;startSize=5;endArrow=classicThin;endFill=1;endSize=5;jettySize=auto;orthogonalLoop=1;strokeColor=#000000;strokeWidth=1;fontFamily=Verdana;fontSize=8;fontColor=#000000;" parent="kqLRz0ytJqrIoJfL_r-M-9" source="kqLRz0ytJqrIoJfL_r-M-15" target="kqLRz0ytJqrIoJfL_r-M-16" edge="1">
          <mxGeometry relative="1" as="geometry" />
        </mxCell>
        <mxCell id="kqLRz0ytJqrIoJfL_r-M-15" value="" style="shape=mxgraph.bpmn.shape;html=1;verticalLabelPosition=bottom;labelBackgroundColor=#ffffff;verticalAlign=top;perimeter=rhombusPerimeter;background=gateway;outline=none;symbol=parallelGw;rounded=1;shadow=0;strokeWidth=1;fontFamily=Verdana;fontSize=8;align=center;" parent="kqLRz0ytJqrIoJfL_r-M-9" vertex="1">
          <mxGeometry x="440" y="60.500000000000064" width="30" height="30" as="geometry" />
        </mxCell>
        <mxCell id="kqLRz0ytJqrIoJfL_r-M-16" value="" style="rounded=1;whiteSpace=wrap;html=1;shadow=0;labelBackgroundColor=none;strokeWidth=1;fontFamily=Verdana;fontSize=8;align=center;" parent="kqLRz0ytJqrIoJfL_r-M-9" vertex="1">
          <mxGeometry x="530" y="57" width="70" height="37" as="geometry" />
        </mxCell>
        <mxCell id="kqLRz0ytJqrIoJfL_r-M-17" value="Scientist" style="swimlane;html=1;startSize=20;horizontal=0;fillColor=#67AB9F;" parent="2b4e8129b02d487f-1" vertex="1">
          <mxGeometry y="770" width="680" height="150" as="geometry" />
        </mxCell>
        <mxCell id="kqLRz0ytJqrIoJfL_r-M-18" style="edgeStyle=orthogonalEdgeStyle;rounded=0;html=1;labelBackgroundColor=none;startArrow=none;startFill=0;startSize=5;endArrow=classicThin;endFill=1;endSize=5;jettySize=auto;orthogonalLoop=1;strokeWidth=1;fontFamily=Verdana;fontSize=8;" parent="kqLRz0ytJqrIoJfL_r-M-17" source="kqLRz0ytJqrIoJfL_r-M-19" target="kqLRz0ytJqrIoJfL_r-M-21" edge="1">
          <mxGeometry relative="1" as="geometry" />
        </mxCell>
        <mxCell id="kqLRz0ytJqrIoJfL_r-M-19" value="" style="rounded=1;whiteSpace=wrap;html=1;shadow=0;labelBackgroundColor=none;strokeWidth=1;fontFamily=Verdana;fontSize=8;align=center;" parent="kqLRz0ytJqrIoJfL_r-M-17" vertex="1">
          <mxGeometry x="230" y="57.00000000000003" width="70" height="37" as="geometry" />
        </mxCell>
        <mxCell id="kqLRz0ytJqrIoJfL_r-M-20" value="Yes" style="edgeStyle=orthogonalEdgeStyle;rounded=0;html=1;entryX=0;entryY=0.5;labelBackgroundColor=none;startArrow=none;startFill=0;startSize=5;endArrow=classicThin;endFill=1;endSize=5;jettySize=auto;orthogonalLoop=1;strokeWidth=1;fontFamily=Verdana;fontSize=8" parent="kqLRz0ytJqrIoJfL_r-M-17" source="kqLRz0ytJqrIoJfL_r-M-21" target="kqLRz0ytJqrIoJfL_r-M-23" edge="1">
          <mxGeometry x="-0.5006" y="6" relative="1" as="geometry">
            <mxPoint as="offset" />
          </mxGeometry>
        </mxCell>
        <mxCell id="kqLRz0ytJqrIoJfL_r-M-21" value="" style="strokeWidth=1;html=1;shape=mxgraph.flowchart.decision;whiteSpace=wrap;rounded=1;shadow=0;labelBackgroundColor=none;fontFamily=Verdana;fontSize=8;align=center;" parent="kqLRz0ytJqrIoJfL_r-M-17" vertex="1">
          <mxGeometry x="330" y="60.500000000000064" width="30" height="30" as="geometry" />
        </mxCell>
        <mxCell id="kqLRz0ytJqrIoJfL_r-M-22" style="edgeStyle=orthogonalEdgeStyle;rounded=0;html=1;labelBackgroundColor=none;startArrow=none;startFill=0;startSize=5;endArrow=classicThin;endFill=1;endSize=5;jettySize=auto;orthogonalLoop=1;strokeColor=#000000;strokeWidth=1;fontFamily=Verdana;fontSize=8;fontColor=#000000;" parent="kqLRz0ytJqrIoJfL_r-M-17" source="kqLRz0ytJqrIoJfL_r-M-23" target="kqLRz0ytJqrIoJfL_r-M-24" edge="1">
          <mxGeometry relative="1" as="geometry" />
        </mxCell>
        <mxCell id="kqLRz0ytJqrIoJfL_r-M-23" value="" style="shape=mxgraph.bpmn.shape;html=1;verticalLabelPosition=bottom;labelBackgroundColor=#ffffff;verticalAlign=top;perimeter=rhombusPerimeter;background=gateway;outline=none;symbol=parallelGw;rounded=1;shadow=0;strokeWidth=1;fontFamily=Verdana;fontSize=8;align=center;" parent="kqLRz0ytJqrIoJfL_r-M-17" vertex="1">
          <mxGeometry x="440" y="60.500000000000064" width="30" height="30" as="geometry" />
        </mxCell>
        <mxCell id="kqLRz0ytJqrIoJfL_r-M-24" value="" style="rounded=1;whiteSpace=wrap;html=1;shadow=0;labelBackgroundColor=none;strokeWidth=1;fontFamily=Verdana;fontSize=8;align=center;" parent="kqLRz0ytJqrIoJfL_r-M-17" vertex="1">
          <mxGeometry x="530" y="57" width="70" height="37" as="geometry" />
        </mxCell>
        <mxCell id="kqLRz0ytJqrIoJfL_r-M-25" value="Drone Operator" style="swimlane;html=1;startSize=20;horizontal=0;fillColor=#9999FF;" parent="2b4e8129b02d487f-1" vertex="1">
          <mxGeometry y="920" width="680" height="150" as="geometry" />
        </mxCell>
        <mxCell id="kqLRz0ytJqrIoJfL_r-M-26" style="edgeStyle=orthogonalEdgeStyle;rounded=0;html=1;labelBackgroundColor=none;startArrow=none;startFill=0;startSize=5;endArrow=classicThin;endFill=1;endSize=5;jettySize=auto;orthogonalLoop=1;strokeWidth=1;fontFamily=Verdana;fontSize=8;" parent="kqLRz0ytJqrIoJfL_r-M-25" source="kqLRz0ytJqrIoJfL_r-M-27" target="kqLRz0ytJqrIoJfL_r-M-29" edge="1">
          <mxGeometry relative="1" as="geometry" />
        </mxCell>
        <mxCell id="kqLRz0ytJqrIoJfL_r-M-27" value="" style="rounded=1;whiteSpace=wrap;html=1;shadow=0;labelBackgroundColor=none;strokeWidth=1;fontFamily=Verdana;fontSize=8;align=center;" parent="kqLRz0ytJqrIoJfL_r-M-25" vertex="1">
          <mxGeometry x="230" y="57.00000000000003" width="70" height="37" as="geometry" />
        </mxCell>
        <mxCell id="kqLRz0ytJqrIoJfL_r-M-28" value="Yes" style="edgeStyle=orthogonalEdgeStyle;rounded=0;html=1;entryX=0;entryY=0.5;labelBackgroundColor=none;startArrow=none;startFill=0;startSize=5;endArrow=classicThin;endFill=1;endSize=5;jettySize=auto;orthogonalLoop=1;strokeWidth=1;fontFamily=Verdana;fontSize=8" parent="kqLRz0ytJqrIoJfL_r-M-25" source="kqLRz0ytJqrIoJfL_r-M-29" target="kqLRz0ytJqrIoJfL_r-M-31" edge="1">
          <mxGeometry x="-0.5006" y="6" relative="1" as="geometry">
            <mxPoint as="offset" />
          </mxGeometry>
        </mxCell>
        <mxCell id="kqLRz0ytJqrIoJfL_r-M-29" value="" style="strokeWidth=1;html=1;shape=mxgraph.flowchart.decision;whiteSpace=wrap;rounded=1;shadow=0;labelBackgroundColor=none;fontFamily=Verdana;fontSize=8;align=center;" parent="kqLRz0ytJqrIoJfL_r-M-25" vertex="1">
          <mxGeometry x="330" y="60.500000000000064" width="30" height="30" as="geometry" />
        </mxCell>
        <mxCell id="kqLRz0ytJqrIoJfL_r-M-30" style="edgeStyle=orthogonalEdgeStyle;rounded=0;html=1;labelBackgroundColor=none;startArrow=none;startFill=0;startSize=5;endArrow=classicThin;endFill=1;endSize=5;jettySize=auto;orthogonalLoop=1;strokeColor=#000000;strokeWidth=1;fontFamily=Verdana;fontSize=8;fontColor=#000000;" parent="kqLRz0ytJqrIoJfL_r-M-25" source="kqLRz0ytJqrIoJfL_r-M-31" target="kqLRz0ytJqrIoJfL_r-M-32" edge="1">
          <mxGeometry relative="1" as="geometry" />
        </mxCell>
        <mxCell id="kqLRz0ytJqrIoJfL_r-M-31" value="" style="shape=mxgraph.bpmn.shape;html=1;verticalLabelPosition=bottom;labelBackgroundColor=#ffffff;verticalAlign=top;perimeter=rhombusPerimeter;background=gateway;outline=none;symbol=parallelGw;rounded=1;shadow=0;strokeWidth=1;fontFamily=Verdana;fontSize=8;align=center;" parent="kqLRz0ytJqrIoJfL_r-M-25" vertex="1">
          <mxGeometry x="440" y="60.500000000000064" width="30" height="30" as="geometry" />
        </mxCell>
        <mxCell id="kqLRz0ytJqrIoJfL_r-M-32" value="" style="rounded=1;whiteSpace=wrap;html=1;shadow=0;labelBackgroundColor=none;strokeWidth=1;fontFamily=Verdana;fontSize=8;align=center;" parent="kqLRz0ytJqrIoJfL_r-M-25" vertex="1">
          <mxGeometry x="530" y="57" width="70" height="37" as="geometry" />
        </mxCell>
        <mxCell id="JXk1v7vSRiy6vUIL9abN-3" style="edgeStyle=orthogonalEdgeStyle;rounded=0;html=1;labelBackgroundColor=none;startArrow=none;startFill=0;startSize=5;endArrow=classicThin;endFill=1;endSize=5;jettySize=auto;orthogonalLoop=1;strokeWidth=1;fontFamily=Verdana;fontSize=8;entryX=0.5;entryY=0;entryDx=0;entryDy=0;exitX=0.5;exitY=1;exitDx=0;exitDy=0;exitPerimeter=0;" parent="2b4e8129b02d487f-1" source="JXk1v7vSRiy6vUIL9abN-6" target="2b4e8129b02d487f-14" edge="1">
          <mxGeometry relative="1" as="geometry">
            <mxPoint x="305" y="257" as="sourcePoint" />
            <mxPoint x="260" y="249" as="targetPoint" />
          </mxGeometry>
        </mxCell>
        <mxCell id="JXk1v7vSRiy6vUIL9abN-8" value="tokenize trees&lt;div&gt;based on (x,y)&lt;/div&gt;" style="edgeLabel;html=1;align=center;verticalAlign=middle;resizable=0;points=[];" parent="JXk1v7vSRiy6vUIL9abN-3" vertex="1" connectable="0">
          <mxGeometry x="0.4994" relative="1" as="geometry">
            <mxPoint as="offset" />
          </mxGeometry>
        </mxCell>
      </root>
    </mxGraphModel>
  </diagram>
</mxfile>
